<?xml version="1.0" encoding="utf-8"?>
<!-- Generator: Adobe Illustrator 26.5.0, SVG Export Plug-In . SVG Version: 6.00 Build 0)  -->
<svg version="1.1" id="Layer_1" xmlns="http://www.w3.org/2000/svg" xmlns:xlink="http://www.w3.org/1999/xlink" x="0px" y="0px"
	 viewBox="0 0 751.1 377.3" style="enable-background:new 0 0 751.1 377.3;" xml:space="preserve">
<style type="text/css">
	.st0{fill:#005CB9;}
	.st1{fill:#A7A8A9;}
	.st2{fill:#A9A8A9;}
	.st3{fill:#005CB8;}
</style>
<g>
	<g>
		<path class="st0" d="M75.3,262c-10.9,0-19.7,8.8-19.7,19.7c0,10.9,8.8,19.7,19.7,19.7c10.9,0,19.7-8.8,19.7-19.7
			C95,270.8,86.2,262,75.3,262z M75.3,292.8c-6.1,0-11.1-5-11.1-11.1c0-6.1,5-11.1,11.1-11.1c6.1,0,11.1,5,11.1,11.1
			C86.4,287.8,81.4,292.8,75.3,292.8z"/>
	</g>
	<path class="st0" d="M119.6,290.2v9.9h-8.5v-37h14.7c7.9,0,13.1,6,13.1,13.6c0,7.5-5.2,13.5-12.9,13.5H119.6z M119.6,283.1h5.2
		c4,0,5.5-3.1,5.5-6.3c0-3.2-1.5-6.4-5.5-6.4h-5.2V283.1z"/>
	<path class="st0" d="M184.6,270.4h-11.5v29.8h-8.4v-29.8h-11.5v-7.2h31.5V270.4z"/>
	<rect x="200.2" y="263.2" class="st0" width="8.5" height="37"/>
	<path class="st0" d="M260,295.4c-2.6,2.8-6.7,6.1-15.2,6.1c-11.3,0-20.2-8.4-20.2-20c0-12.1,10-19.7,20.5-19.7
		c7.6,0,12.8,3.8,14.9,5.9l-5.5,6.5c-1-1-4.1-4.3-9.3-4.3c-6.4,0-11,5.3-11,11.6c0,6.1,4.1,11.8,11.4,11.8c4.2,0,7.5-2.2,9.1-3.9
		L260,295.4z"/>
	<path class="st0" d="M301.6,300.3h-8.8v-37.1h9.1l11.3,16.1l10.7-16.1h9v37.1h-8.8v-20.8l0-1.7l-10.7,15.4h-0.8l-11.2-15.6l0,1.8
		V300.3z"/>
	<path class="st0" d="M373.8,294.8h-14.8l-2,5.5h-9.2l14.4-37.2h8.8l14.4,37.2h-9.5L373.8,294.8z M371.3,287.8l-4.9-13.6l-4.9,13.6
		H371.3z"/>
	<path class="st0" d="M413,263c9,0,15.3,3.2,15.3,13c0,2.7-1.2,7.5-5.5,10.4l6.7,13.8h-9.6c-1.8-3.8-3.5-7.7-5.4-11.5h-5.9v11.5H400
		V263H413z M408.6,281.5h5.1c4.4,0,5.8-3.3,5.8-5.8s-1.4-5.5-5.8-5.5h-5.1V281.5z"/>
	<path class="st0" d="M454.4,283.4v16.8h-8.9v-37.1h8.9v16.3l11.5-16.3h10.3L463,280.8l14.4,19.5h-11.3L454.4,283.4z"/>
	<path class="st0" d="M518.4,263.1v7.2h-17.6v7.6h12.9v7.2h-12.9v7.9h17.4v7.2h-25.9v-37.1H518.4z"/>
	<path class="st0" d="M566.6,270.4h-11.5v29.8h-8.4v-29.8h-11.5v-7.2h31.5V270.4z"/>
	<rect x="582.2" y="263.1" class="st0" width="8.5" height="37"/>
	<path class="st0" d="M618.8,278.1v22.1H610v-37.1h8.5l16.1,22.2v-22.2h8.8v37.1h-8.4L618.8,278.1z"/>
	<path class="st0" d="M695.4,294.4c-5,5.4-10.5,7.1-16.5,7.1c-12.7,0-21-8.7-21-20.1c0-11.8,9.7-19.6,20.2-19.6
		c8,0,12.6,3.4,15.2,5.9l-5.6,6.4c-1.3-1.3-4-4.2-9.1-4.2c-6.2,0-11,5.1-11,11.4c0,7.5,4.7,12.2,11.8,12.2c2.6,0,6-1.1,7.4-2.3v-3
		H681v-7.6h14.4L695.4,294.4z"/>
</g>
<g>
	<path class="st1" d="M263.3,344.5c-3,3.3-6.3,4.3-9.9,4.3c-7.6,0-12.6-5.2-12.6-12c0-7.1,5.8-11.8,12.1-11.8c4.8,0,7.5,2.1,9.1,3.5
		l-3.4,3.8c-0.8-0.8-2.4-2.5-5.5-2.5c-3.7,0-6.6,3.1-6.6,6.8c0,4.5,2.8,7.3,7.1,7.3c1.5,0,3.6-0.7,4.4-1.4v-1.8h-3.5v-4.5h8.6
		L263.3,344.5z"/>
	<path class="st1" d="M312.9,324.8c5.8,0,9.8,2.1,9.8,8.4c0,1.8-0.8,4.8-3.5,6.7l4.3,8.8h-6.2c-1.2-2.5-2.3-4.9-3.5-7.4h-3.8v7.4
		h-5.5v-23.9H312.9z M310.1,336.7h3.3c2.8,0,3.7-2.1,3.7-3.7c0-1.6-0.9-3.5-3.7-3.5h-3.3V336.7z"/>
	<g>
		<path class="st1" d="M377.4,324.1c-7,0-12.7,5.7-12.7,12.7c0,7,5.7,12.7,12.7,12.7c7,0,12.7-5.7,12.7-12.7
			C390.1,329.7,384.4,324.1,377.4,324.1z M377.4,343.9c-3.9,0-7.1-3.2-7.1-7.1c0-3.9,3.2-7.1,7.1-7.1c3.9,0,7.1,3.2,7.1,7.1
			C384.6,340.7,381.4,343.9,377.4,343.9z"/>
	</g>
	<path class="st1" d="M497.8,342.4v6.4h-5.4V325h9.4c5.1,0,8.4,3.9,8.4,8.7c0,4.8-3.4,8.7-8.3,8.7H497.8z M497.8,337.8h3.3
		c2.6,0,3.6-2,3.6-4.1c0-2.1-1-4.1-3.6-4.1h-3.3V337.8z"/>
	<path class="st1" d="M431.4,339.4v-14.5h5.4v15c0,2.7,2.1,4.3,4.5,4.3c2.4,0,4.5-1.6,4.5-4.3v-15h5.4v14.5c0,6-3,9.4-9.8,9.4
		C434.4,348.8,431.4,345.4,431.4,339.4z"/>
</g>
<g>
	<path class="st2" d="M473.8,125.1c0-0.3,0-0.5,0-0.8c0-0.4,0-0.9,0-1.3c-0.1-2.6-0.2-5.1-0.4-7.7c-0.1,0-0.1,0-0.2,0c0,0,0,0,0,0
		h-13.7h-8.2h-14.3h-28.5v0v22.8h42.7h0c-5.1,32.7-30.9,58.5-63.5,63.7v-0.3v-63.4h-0.5h-22.3v63.9v21.3v0.6
		c3.5,0.4,7.1,0.6,10.7,0.6c4.1,0,8.1-0.3,12.1-0.7c42.1-5.2,76-37,84.3-78.1c1.4-6.3,1.9-12.7,1.9-19.1c0-0.1,0-0.2,0-0.3
		C473.8,125.8,473.8,125.4,473.8,125.1z"/>
	<path class="st3" d="M426.3,69.3c9.9,8.5,16.7,19.8,21.5,31.8c0.4,1.1,0.7,2.2,1.1,3.4h8.6h13.9c0,0,0,0,0-0.1c0.1,0,0.1,0,0.2,0
		c-1.6-7.2-4.1-14.2-7.4-20.8c-12.7-26.3-36.7-46.2-65.8-53.1c-0.1,0-0.2-0.1-0.3-0.1v0.3V53v0.4c0.1,0,0.2,0.1,0.3,0.1
		C408.6,56.9,418.3,62.1,426.3,69.3z"/>
	<path class="st3" d="M387.1,115.3h0.5v-34V67.6v-17V28.6c-0.1,0-0.2,0-0.3,0c-3.9-0.5-7.8-0.7-11.8-0.7c-0.3,0-0.6,0-0.9,0
		c-0.5,0-1,0-1.6,0c-2.8,0.1-5.5,0.3-8.2,0.6c-3.3,0.4-6.5,0.9-9.7,1.6c-0.4,0.1-0.9,0.2-1.3,0.3c-0.3,0.1-0.7,0.2-1,0.2
		c-3.2,0.7-6.2,1.6-9.1,2.6c-1.4,0.5-2.7,1-4,1.5c-0.1,0-0.1,0.1-0.2,0.1c-0.4,0.2-0.8,0.3-1.2,0.5c-0.7,0.3-1.4,0.6-2.1,0.9
		c0,0,0,0,0,0c-0.9,0.4-1.8,0.8-2.8,1.3c-0.7,0.3-1.3,0.6-1.9,1c-3.7,1.8-7.3,3.9-10.7,6.2c-25.4,17-42.4,45.6-43.5,78.2
		c0,0.7-0.1,1.4-0.1,2c0,0.3,0,0.7,0,1c0,0.2,0,0.3,0,0.5c0,0.4,0,0.8,0,1.2c0,0.1,0,0.2,0,0.4c0,0.7,0.1,1.5,0.1,2.2
		c0.1,2.2,0.2,4.4,0.4,6.6h0.2h21.7h1c-0.5-2.7-1.7-10.6,0.2-22.1c0.1-0.6,0.2-1.2,0.3-1.8c0.2-1.2,0.5-2.4,0.7-3.6
		c0.1-0.5,0.3-1,0.4-1.5c3.4-12.4,9.6-24.1,18.5-33.5v87.1c4.4,5.9,13.7,11.9,18.9,15c0,0,0,0,0,0c0.3,0.2,0.6,0.4,0.9,0.6
		c1.7,1,2.8,1.6,2.8,1.6c0-3.2,0-6.4,0-9.6c0.1-37.1,0-74.1,0-111.2c0,0,0,0,0.1,0c6.7-2.9,13.7-5,20.8-6.5c0,9.4,0,35.2,0,64.3h0.3
		H387.1z"/>
	<path class="st3" d="M320.9,179.7c-8.8-9-15.4-20-18.9-32.4c0,0,0,0,0,0h-22.4c5.5,25.1,20.6,46.7,41.3,60.5
		c7,4.7,14.7,8.5,22.8,11.3c0,0,0,0,0,0c0.1,0.1,0.3,0.1,0.4,0.2c4.2,1.4,8.4,2.4,9.9,2.8v-22.4c-3.6-1-7-2.3-10.4-3.9
		C335.1,191.8,327.4,186.4,320.9,179.7z"/>
</g>
<g>
	<polyline class="st3" points="208.6,336 55.5,336 55.5,337.5 208.6,337.5 	"/>
	<polyline class="st3" points="695.6,336 542.5,336 542.5,337.5 695.6,337.5 	"/>
</g>
</svg>
